<svg width="40" height="40" viewBox="0 0 40 40" fill="none" xmlns="http://www.w3.org/2000/svg">
<path d="M34.1421 5.85788C30.3646 2.08031 25.3422 0 20 0C14.6578 0 9.63537 2.08031 5.85788 5.85788C2.08031 9.63537 0 14.6578 0 20C0 25.3422 2.08031 30.3646 5.85788 34.1422C9.63537 37.9197 14.6578 40 20 40C25.3422 40 30.3646 37.9197 34.1421 34.1421C37.9197 30.3646 40 25.3422 40 20C40 14.6578 37.9197 9.63537 34.1421 5.85788ZM20 2.35294C29.7306 2.35294 37.6471 10.2694 37.6471 20C37.6471 23.1532 36.815 26.1153 35.3601 28.6798L27.6332 24.222C27.739 23.6129 27.8055 22.9879 27.8309 22.3529H29.4665L32.3176 24.1349L33.5647 22.1397L30.1413 20H27.8431V18.0098L30.5882 16.4261V10.5882H28.2353V15.0671L25.8824 16.4245V15.2522C25.8824 12.7338 23.8757 10.6766 21.3775 10.5923C21.862 9.22086 23.1707 8.23529 24.7059 8.23529V5.88235C22.7837 5.88235 21.0741 6.80926 20 8.23937C18.9259 6.80926 17.2163 5.88235 15.2941 5.88235V8.23529C16.8293 8.23529 18.138 9.22086 18.6225 10.5923C16.1243 10.6765 14.1176 12.7338 14.1176 15.2522V16.4245L13.9264 16.3142L11.7647 15.0671V10.5882H9.41177V13.7096L4.79804 11.0478C7.87161 5.84831 13.5348 2.35294 20 2.35294ZM21.2184 12.9412C22.4927 12.9412 23.5294 13.978 23.5294 15.2522V16.8627H16.4706V15.2522C16.4706 13.978 17.5073 12.9412 18.7816 12.9412H21.2184ZM25.4322 22.9522L18.9556 19.2157H25.4902V21.7647C25.4902 22.166 25.47 22.5624 25.4322 22.9522ZM14.5098 21.7647V19.3673L24.9281 25.3778C24.6401 26.2475 24.2456 27.0459 23.754 27.7398C22.7216 29.1973 21.3884 30 20 30C18.6116 30 17.2784 29.1973 16.246 27.7398C15.1264 26.1592 14.5098 24.0373 14.5098 21.7647ZM20 37.6471C10.2694 37.6471 2.35294 29.7306 2.35294 20C2.35294 17.5728 2.84565 15.2585 3.73616 13.1517L12.1569 18.0098V20H9.85867L6.43529 22.1396L7.68235 24.1348L10.5335 22.3529H12.1691C12.1959 23.0231 12.2683 23.6821 12.3845 24.3229L9.41177 25.9744V30.5882H11.7647V27.3589L13.0318 26.655C13.3711 27.5409 13.8049 28.3642 14.326 29.0998C15.8118 31.1976 17.8269 32.3529 20 32.3529C22.1731 32.3529 24.1882 31.1976 25.674 29.0998C26.1951 28.3642 26.6289 27.5409 26.9682 26.655L28.2353 27.3589V30.5882H30.5882V28.6433L34.0629 30.6479C30.8375 34.8973 25.7341 37.6471 20 37.6471Z" fill="#396CB9"/>
</svg>
