<svg width="24" height="40" viewBox="0 0 24 40" fill="none" xmlns="http://www.w3.org/2000/svg">
<path d="M20.4 9.56071V2.35294H22.8V0H1.2V2.35294H3.6V9.56071C1.53208 10.0844 0 11.9289 0 14.1176V35.2941C0 37.8889 2.15328 40 4.8 40H19.2C21.8467 40 24 37.8889 24 35.2941C24 35.0355 24 14.3801 24 14.1176C24 11.9289 22.468 10.0844 20.4 9.56071ZM18 2.35294V9.41177H13.2V7.05882H15.6V4.70588H8.4V7.05882H10.8V9.41177H6V2.35294H18ZM2.4 29.4118H21.6V31.7647H2.4V29.4118ZM21.6 35.2941C21.6 36.5916 20.5234 37.6471 19.2 37.6471H4.8C3.47664 37.6471 2.4 36.5916 2.4 35.2941V34.1176H21.6V35.2941ZM2.4 27.0588V14.1176C2.4 12.8203 3.47664 11.7647 4.8 11.7647H19.2C20.5234 11.7647 21.6 12.8203 21.6 14.1176V27.0588H2.4Z" fill="#396CB9"/>
<path d="M12.0001 14.4005C11.1318 15.6341 10.5292 16.4497 9.76215 17.7458C8.54135 19.8091 8.40015 20.6919 8.40015 21.1765C8.40015 23.1227 10.0151 24.7059 12.0001 24.7059C13.9853 24.7059 15.6001 23.1227 15.6001 21.1765C15.6001 20.6919 15.4589 19.8091 14.2381 17.7459C13.4712 16.4496 12.8684 15.634 12.0001 14.4005ZM12.0001 22.3529C11.3385 22.3529 10.8001 21.8253 10.8001 21.1779C10.8099 20.8183 11.309 19.7933 12.0001 18.6515C12.6909 19.7928 13.1899 20.8174 13.2001 21.1774C13.1996 21.8256 12.6615 22.3529 12.0001 22.3529Z" fill="#9F2D20"/>
<path d="M4.7998 14.1176H7.1998V16.4706H4.7998V14.1176Z" fill="#396CB9"/>
<path d="M16.8 14.1176H19.2V16.4706H16.8V14.1176Z" fill="#396CB9"/>
</svg>
