<svg width="35" height="40" viewBox="0 0 35 40" fill="none" xmlns="http://www.w3.org/2000/svg">
<path d="M28 22.3529V0H0V34.1176C0 37.3612 2.61683 40 5.83333 40H30.3333C32.9065 40 35 37.8889 35 35.2941V22.3529H28ZM2.33333 34.1176V2.35294H25.6667V35.2941C25.6667 36.151 25.896 36.9544 26.2944 37.6471H5.83333C3.90336 37.6471 2.33333 36.0638 2.33333 34.1176ZM32.6667 35.2941C32.6667 36.5915 31.6199 37.6471 30.3333 37.6471C29.0467 37.6471 28 36.5915 28 35.2941V24.7059H32.6667V35.2941Z" fill="#396CB9"/>
<path d="M4.66699 11.7647H23.3337V4.70589H4.66699V11.7647ZM7.00033 7.05883H21.0003V9.41177H7.00033V7.05883Z" fill="#396CB9"/>
<path d="M4.66699 14.1176H23.3337V16.4706H4.66699V14.1176Z" fill="#396CB9"/>
<path d="M11.667 18.8235H4.66699V25.8824H11.667V18.8235ZM9.33366 23.5294H7.00033V21.1765H9.33366V23.5294Z" fill="#9F2D20"/>
<path d="M14 18.8235H23.3333V21.1765H14V18.8235Z" fill="#396CB9"/>
<path d="M14 23.5294H23.3333V25.8824H14V23.5294Z" fill="#396CB9"/>
<path d="M4.66699 28.2353H23.3337V30.5882H4.66699V28.2353Z" fill="#396CB9"/>
<path d="M4.66699 32.9412H23.3337V35.2941H4.66699V32.9412Z" fill="#396CB9"/>
</svg>
