<svg width="46" height="40" viewBox="0 0 46 40" fill="none" xmlns="http://www.w3.org/2000/svg">
<path d="M11.3972 21.3907H21.2651V11.2574H11.3972V21.3907ZM14.0957 14.0985H18.5666V18.5496H14.0957V14.0985Z" fill="#396CB9"/>
<path d="M28.1262 31.9399H37.9941V21.8066H28.1262V31.9399ZM30.8247 24.6477H35.2956V29.0988H30.8247V24.6477Z" fill="#9F2D20"/>
<path d="M46 14.1637H32.286L27.9266 10.2937V3.26528H25.2281V7.89808L16.3314 0L0 14.4982L1.73946 16.6703L2.64391 15.8674V40H43.3914V17.0048H46V14.1637ZM14.21 37.1588V29.6457H18.4527V37.1588H14.21ZM40.6929 37.1588H21.1512V26.8046H11.5115V37.1588H5.34242V13.4718L16.3314 3.71635L31.3001 17.0048H40.6929V37.1588Z" fill="#396CB9"/>
</svg>
