<svg width="155" height="156" viewBox="0 0 155 156" fill="none" xmlns="http://www.w3.org/2000/svg">
<ellipse cx="77.3254" cy="77.8841" rx="65.9247" ry="66.1585" fill="white" fill-opacity="0.3"/>
<g filter="url(#filter0_b)">
<ellipse cx="77.3253" cy="77.8841" rx="56.5069" ry="56.7073" fill="white" fill-opacity="0.3"/>
</g>
<g filter="url(#filter1_d)">
<ellipse cx="77.3254" cy="77.8842" rx="47.089" ry="47.2561" fill="#1E1E1E"/>
<path d="M120.414 77.8842C120.414 101.787 101.109 121.14 77.3254 121.14C53.5413 121.14 34.2363 101.787 34.2363 77.8842C34.2363 53.9811 53.5413 34.6281 77.3254 34.6281C101.109 34.6281 120.414 53.9811 120.414 77.8842Z" stroke="white" stroke-width="8"/>
</g>
<path d="M50.0137 77.884C62.8885 75.1834 75.4414 63.396 77.3253 50.4755C79.3039 63.396 91.7621 75.8983 104.637 77.884C91.7621 79.7745 79.2081 92.3721 77.3253 105.293C75.3456 92.3721 62.8885 80.3517 50.0137 77.884Z" fill="#FFDD2D"/>
<defs>
<filter id="filter0_b" x="10.8185" y="11.1768" width="133.014" height="133.415" filterUnits="userSpaceOnUse" color-interpolation-filters="sRGB">
<feFlood flood-opacity="0" result="BackgroundImageFix"/>
<feGaussianBlur in="BackgroundImage" stdDeviation="5"/>
<feComposite in2="SourceAlpha" operator="in" result="effect1_backgroundBlur"/>
<feBlend mode="normal" in="SourceGraphic" in2="effect1_backgroundBlur" result="shape"/>
</filter>
<filter id="filter1_d" x="0.236328" y="0.628052" width="154.178" height="154.512" filterUnits="userSpaceOnUse" color-interpolation-filters="sRGB">
<feFlood flood-opacity="0" result="BackgroundImageFix"/>
<feColorMatrix in="SourceAlpha" type="matrix" values="0 0 0 0 0 0 0 0 0 0 0 0 0 0 0 0 0 0 127 0"/>
<feOffset/>
<feGaussianBlur stdDeviation="15"/>
<feColorMatrix type="matrix" values="0 0 0 0 0.117647 0 0 0 0 0.117647 0 0 0 0 0.117647 0 0 0 0.5 0"/>
<feBlend mode="normal" in2="BackgroundImageFix" result="effect1_dropShadow"/>
<feBlend mode="normal" in="SourceGraphic" in2="effect1_dropShadow" result="shape"/>
</filter>
</defs>
</svg>
