<svg width="996" height="145" viewBox="0 0 996 145" fill="none" xmlns="http://www.w3.org/2000/svg">
<path fill-rule="evenodd" clip-rule="evenodd" d="M482.142 27.8863V143.925H508.55V95.5923H599.577V143.925H626.185V27.8863C626.185 20.2969 623.45 13.7726 617.982 8.31351C612.514 2.85442 605.912 0.124878 598.176 0.124878H509.95C502.348 0.124878 495.813 2.85442 490.345 8.31351C484.876 13.7726 482.142 20.2969 482.142 27.8863ZM517.152 27.0874C512.733 27.0874 509.15 30.6642 509.15 35.0763V61.0403C509.15 65.4524 512.733 69.0292 517.152 69.0292H591.174C595.594 69.0292 599.177 65.4524 599.177 61.0403V35.0763C599.177 30.6642 595.594 27.0874 591.174 27.0874H517.152Z" fill="#1E1E1E"/>
<path fill-rule="evenodd" clip-rule="evenodd" d="M0 143.925V0.124878H116.034C123.77 0.124878 130.372 2.85442 135.84 8.31351C141.308 13.7726 144.042 20.2969 144.042 27.8863V116.164C144.042 123.753 141.308 130.277 135.84 135.737C130.372 141.196 123.77 143.925 116.034 143.925H0ZM27.008 35.0763C27.008 30.6642 30.5907 27.0874 35.0103 27.0874H109.032C113.452 27.0874 117.034 30.6642 117.034 35.0763V108.974C117.034 113.386 113.452 116.963 109.032 116.963H35.0103C30.5907 116.963 27.008 113.386 27.008 108.974V35.0763Z" fill="#1E1E1E"/>
<path d="M645.958 0.124878V144.125H790V117.562H672.365V0.124878H645.958Z" fill="#1E1E1E"/>
<path d="M164.048 117.562C164.048 117.562 164.048 128.31 170.05 135.936C176.052 143.562 190.656 144.125 190.656 144.125H296.687V117.562H190.656V82.4106H296.687V55.8475H190.656V26.8877H296.687V0.324598H190.656C190.656 0.324598 176.552 0.324597 170.05 8.51324C163.304 17.0093 164.048 28.086 164.048 28.086V117.562Z" fill="#1E1E1E"/>
<path d="M317.215 115.365V144.125H461.258V117.562H355.827L461.258 29.0846V0.324598H317.215V26.8877H422.646L317.215 115.365Z" fill="#1E1E1E"/>
<path d="M851 8.12488C851 3.7066 854.582 0.124878 859 0.124878H987C991.418 0.124878 995 3.7066 995 8.12488V136.125C995 140.543 991.418 144.125 987 144.125H859C854.582 144.125 851 140.543 851 136.125V8.12488Z" fill="#1E1E1E"/>
<path d="M851 72.1249C885 65.0185 918.15 34.0001 923.125 -1.2517e-05C928.35 34 961.25 66.8997 995.25 72.1249C961.25 77.0997 928.097 110.25 923.125 144.25C917.897 110.25 885 78.6186 851 72.1249Z" fill="#FFDD2D"/>
</svg>
