<svg width="186" height="40" viewBox="0 0 186 40" fill="none" xmlns="http://www.w3.org/2000/svg">
<g clip-path="url(#clip0)">
<path d="M5.06421 38.7053H4.45579V37.6316H0.858956V38.7053H0.250534V37.0232H0.751588C0.805272 36.9576 0.876851 36.8413 0.966324 36.6742C1.0558 36.5013 1.14229 36.2626 1.2258 35.9584C1.30931 35.6482 1.38387 35.2666 1.44948 34.8132C1.5151 34.3539 1.55387 33.8021 1.5658 33.1579H4.37526V37.0232H5.06421V38.7053ZM3.67737 37.0321V33.7574H2.20106C2.18913 34.0139 2.16527 34.2913 2.12948 34.5895C2.09966 34.8876 2.05492 35.1861 1.99527 35.4842C1.93562 35.7766 1.86106 36.0568 1.77159 36.3253C1.68808 36.5937 1.58966 36.8292 1.47632 37.0321H3.67737Z" fill="#1E1E1E"/>
<path d="M10.7244 37.0678C10.617 37.1634 10.4888 37.2528 10.3397 37.3363C10.1965 37.4197 10.0385 37.4913 9.86547 37.551C9.69249 37.6107 9.51057 37.6555 9.31968 37.6852C9.13478 37.721 8.94689 37.7389 8.75599 37.7389C8.3981 37.7389 8.08197 37.6852 7.80757 37.5778C7.5332 37.4644 7.30354 37.3065 7.11862 37.1036C6.93373 36.8949 6.79354 36.6473 6.6981 36.361C6.60268 36.0747 6.55494 35.7526 6.55494 35.3947C6.55494 35.0189 6.60565 34.6849 6.70704 34.3926C6.81441 34.1002 6.96652 33.8557 7.16336 33.6589C7.3602 33.4621 7.59881 33.3128 7.87915 33.2115C8.15952 33.1042 8.47268 33.0505 8.81862 33.0505C9.06915 33.0505 9.3167 33.0834 9.56125 33.1489C9.80583 33.2144 10.0206 33.3397 10.2055 33.5247C10.3964 33.7036 10.5425 33.9542 10.6439 34.2763C10.7453 34.5923 10.7811 35.0039 10.7513 35.511H7.28862C7.28862 36.0478 7.43178 36.4505 7.7181 36.7189C8.01039 36.9813 8.3981 37.1126 8.88125 37.1126C9.04231 37.1126 9.20039 37.0947 9.35547 37.0589C9.51652 37.0171 9.66862 36.9694 9.81178 36.9157C9.95494 36.862 10.0802 36.8023 10.1876 36.7368C10.3009 36.6713 10.3874 36.6115 10.447 36.5578L10.7244 37.0678ZM8.83652 33.641C8.63968 33.641 8.45178 33.6618 8.27283 33.7036C8.09986 33.7455 7.94478 33.8171 7.80757 33.9184C7.67636 34.0139 7.56599 34.1421 7.47652 34.3031C7.39302 34.4581 7.33933 34.6521 7.31547 34.8847H10.0981C10.0683 34.491 9.94004 34.1868 9.71336 33.9721C9.49268 33.7513 9.20039 33.641 8.83652 33.641Z" fill="#1E1E1E"/>
<path d="M12.9399 33.5784L12.931 33.5515C13.0324 33.4918 13.1397 33.4352 13.2531 33.3815C13.3724 33.3218 13.5036 33.2713 13.6467 33.2294C13.7958 33.1818 13.9629 33.1428 14.1478 33.1131C14.3327 33.0834 14.5445 33.0684 14.7831 33.0684C15.0276 33.0684 15.2543 33.0952 15.4631 33.1489C15.6718 33.1965 15.8537 33.2681 16.0089 33.3636C16.1639 33.4591 16.2832 33.5784 16.3667 33.7215C16.4562 33.8586 16.501 34.0168 16.501 34.1957C16.501 34.2913 16.4801 34.3926 16.4383 34.4999C16.4025 34.6013 16.3459 34.6997 16.2683 34.7952C16.1908 34.8907 16.0983 34.977 15.991 35.0547C15.8836 35.1323 15.7613 35.1918 15.6241 35.2336V35.2694C16.0178 35.3349 16.2922 35.4602 16.4473 35.6452C16.6083 35.8302 16.6889 36.0747 16.6889 36.3789C16.6889 36.5697 16.6441 36.7457 16.5546 36.9068C16.4652 37.0678 16.331 37.2081 16.152 37.3273C15.979 37.4465 15.7613 37.542 15.4989 37.6136C15.2424 37.6792 14.9411 37.712 14.5952 37.712C14.3387 37.712 14.106 37.6881 13.8973 37.6405C13.6885 37.5928 13.5036 37.5331 13.3425 37.4615C13.1874 37.3899 13.0532 37.3123 12.9399 37.2289C12.8325 37.1455 12.749 37.0678 12.6894 36.9963L13.0473 36.4326C13.1129 36.5042 13.1934 36.5818 13.2889 36.6652C13.3843 36.7428 13.5006 36.8144 13.6378 36.8799C13.781 36.9455 13.942 37.0023 14.121 37.0499C14.3059 37.0918 14.5176 37.1126 14.7562 37.1126C14.9232 37.1126 15.0783 37.0976 15.2215 37.0678C15.3706 37.032 15.4989 36.9844 15.6062 36.9247C15.7195 36.8592 15.809 36.7786 15.8746 36.6831C15.9402 36.5818 15.9731 36.4655 15.9731 36.3342C15.9731 36.1076 15.8687 35.9344 15.6599 35.8152C15.4571 35.696 15.1201 35.6363 14.6489 35.6363H14.1389V35.0547H14.7741C14.8934 35.0547 15.0127 35.0368 15.132 35.001C15.2513 34.9591 15.3587 34.9086 15.4541 34.8489C15.5495 34.7834 15.6271 34.7086 15.6867 34.6252C15.7464 34.5357 15.7762 34.4434 15.7762 34.3478C15.7762 34.2286 15.7464 34.127 15.6867 34.0436C15.6271 33.9541 15.5436 33.8826 15.4362 33.8289C15.3348 33.7752 15.2125 33.7365 15.0694 33.7126C14.9322 33.6828 14.786 33.6678 14.631 33.6678C14.3924 33.6678 14.1836 33.6918 14.0046 33.7394C13.8257 33.7813 13.6736 33.8349 13.5483 33.9005V34.6431H12.9399V33.5784Z" fill="#1E1E1E"/>
<path d="M21.8838 34.8221L21.9106 34.2316H21.8838L19.3695 37.6316H18.7343V33.1579H19.4322V36.0479L19.4053 36.6116H19.4411L21.9374 33.1579H22.5817V37.6316H21.8838V34.8221Z" fill="#1E1E1E"/>
<path d="M27.8482 35.6453H25.4414V37.6316H24.7524V33.1579H25.4414V35.019H27.8482V33.1579H28.5461V37.6316H27.8482V35.6453Z" fill="#1E1E1E"/>
<path d="M31.6026 31.3685H32.9805V33.1311C33.0879 33.1132 33.1831 33.1014 33.2668 33.0953C33.3502 33.0893 33.4308 33.0864 33.5084 33.0864C34.051 33.0864 34.4537 33.2593 34.7163 33.6053C34.9787 33.9453 35.11 34.5119 35.11 35.3053C35.11 36.0569 34.9697 36.6503 34.6895 37.0859C34.415 37.5214 34.0095 37.739 33.4726 37.739C33.4189 37.739 33.3384 37.733 33.231 37.7211C33.1294 37.7151 33.046 37.7003 32.9805 37.6764V39.4211H32.3005V37.6674C32.1989 37.7032 32.0916 37.724 31.9784 37.7301C31.871 37.7361 31.7726 37.739 31.6831 37.739C31.1821 37.739 30.8031 37.5482 30.5468 37.1664C30.2963 36.7846 30.171 36.194 30.171 35.3948C30.171 34.6314 30.3142 34.0556 30.6005 33.668C30.8868 33.2803 31.3102 33.0864 31.871 33.0864C32.0379 33.0864 32.181 33.0982 32.3005 33.1222V31.968H31.6026V31.3685ZM33.3742 33.6769C33.3026 33.6769 33.2368 33.6798 33.1773 33.6859C33.1237 33.6859 33.055 33.6977 32.9716 33.7217V37.1217C33.031 37.1335 33.0968 37.1424 33.1684 37.1485C33.2458 37.1485 33.3294 37.1485 33.4189 37.1485C33.7589 37.1485 34.0063 36.9903 34.1616 36.6743C34.3166 36.3582 34.3942 35.9019 34.3942 35.3053C34.3942 35.0548 34.3792 34.8282 34.3495 34.6253C34.3195 34.4224 34.2658 34.2524 34.1884 34.1153C34.1108 33.9722 34.0063 33.8648 33.8752 33.7932C33.7439 33.7156 33.5768 33.6769 33.3742 33.6769ZM31.8621 37.1485C31.9337 37.1485 32.0052 37.1456 32.0768 37.1396C32.1484 37.1335 32.2258 37.1217 32.3094 37.1038V33.7127C32.2379 33.7009 32.1692 33.6919 32.1037 33.6859C32.0439 33.6798 31.9694 33.6769 31.88 33.6769C31.5579 33.6769 31.3102 33.8172 31.1373 34.0975C30.9702 34.3719 30.8868 34.8043 30.8868 35.3948C30.8868 35.6453 30.9047 35.878 30.9405 36.0927C30.9763 36.3074 31.0329 36.4953 31.1105 36.6564C31.1879 36.8114 31.2863 36.9338 31.4058 37.0232C31.531 37.1067 31.6831 37.1485 31.8621 37.1485Z" fill="#1E1E1E"/>
<path d="M39.8574 34.8221L39.8842 34.2316H39.8574L37.3432 37.6316H36.7079V33.1579H37.4058V36.0479L37.379 36.6116H37.4147L39.9111 33.1579H40.5553V37.6316H39.8574V34.8221Z" fill="#1E1E1E"/>
<path d="M47.1729 38.7053H46.5645V37.6316H42.744V33.1579H43.4329V37.0232H45.7413V33.1579H46.4392V37.0232H47.1729V38.7053Z" fill="#1E1E1E"/>
<path d="M51.84 34.8221L51.8668 34.2316H51.84L49.3258 37.6316H48.6906V33.1579H49.3884V36.0479L49.3616 36.6116H49.3974L51.8937 33.1579H52.5379V37.6316H51.84V34.8221Z" fill="#1E1E1E"/>
<path d="M54.7803 34.7236C54.7803 34.67 54.7771 34.6013 54.7711 34.5178C54.7711 34.4284 54.7682 34.3389 54.7621 34.2494C54.7563 34.1539 54.7474 34.0615 54.7353 33.9721C54.7295 33.8826 54.7205 33.805 54.7087 33.7394H54.1092V33.1578H55.2992L55.3887 33.7842H55.4332C55.5942 33.5755 55.7971 33.4023 56.0416 33.2652C56.2921 33.1221 56.5963 33.0505 56.9542 33.0505C57.5926 33.0505 58.0726 33.2265 58.3947 33.5784C58.7169 33.9302 58.8779 34.506 58.8779 35.3052C58.8779 35.681 58.8213 36.021 58.7079 36.3252C58.6005 36.6234 58.4455 36.8771 58.2426 37.0857C58.04 37.2944 57.7955 37.4555 57.5092 37.5689C57.2226 37.6823 56.9066 37.7389 56.5605 37.7389C56.4353 37.7389 56.3221 37.7329 56.2208 37.721C56.1253 37.715 56.0358 37.7031 55.9521 37.6852C55.8747 37.6734 55.7971 37.6555 55.7195 37.6315C55.6421 37.6076 55.5587 37.5779 55.4692 37.5421V39.421H54.7803V34.7236ZM56.8379 33.7036C56.659 33.7036 56.489 33.7365 56.3279 33.8021C56.1729 33.8676 56.0329 33.9542 55.9076 34.0615C55.7882 34.1689 55.6897 34.2881 55.6121 34.4194C55.5347 34.5507 55.4871 34.6818 55.4692 34.8131V36.8531C55.6003 36.9426 55.7466 37.0142 55.9076 37.0679C56.0745 37.1155 56.2921 37.1394 56.5605 37.1394C57.0379 37.1394 57.4198 36.9844 57.7061 36.6742C57.9924 36.3581 58.1355 35.8986 58.1355 35.2963C58.1355 34.7892 58.034 34.3986 57.8311 34.1242C57.6342 33.8439 57.3032 33.7036 56.8379 33.7036Z" fill="#1E1E1E"/>
<path d="M62.695 36.9426H63.035L64.1444 33.1579H64.8692L63.6255 37.1753C63.56 37.384 63.4913 37.6197 63.4197 37.8821C63.3542 38.1505 63.2587 38.4011 63.1334 38.6337C63.0081 38.8663 62.8381 39.0632 62.6234 39.2242C62.4087 39.3853 62.1284 39.4658 61.7823 39.4658C61.705 39.4658 61.6213 39.4568 61.5318 39.4389C61.4484 39.4211 61.365 39.3971 61.2813 39.3674C61.1979 39.3434 61.1202 39.3137 61.0487 39.2779C60.9771 39.2421 60.9234 39.2063 60.8876 39.1705L61.1381 38.5263C61.1739 38.5561 61.2218 38.5861 61.2813 38.6158C61.3471 38.6455 61.4155 38.6695 61.4871 38.6874C61.5647 38.7113 61.6392 38.7292 61.7108 38.7411C61.7823 38.7589 61.8421 38.7679 61.8897 38.7679C62.3371 38.7679 62.6413 38.3892 62.8023 37.6316H62.2029L60.3239 33.1579H61.1292L62.695 36.9426Z" fill="#1E1E1E"/>
<path d="M69.3664 37.7389C69.0682 37.7389 68.8177 37.6913 68.6148 37.5957C68.4179 37.4944 68.2598 37.3542 68.1406 37.1752C68.0214 36.9902 67.9348 36.7697 67.8811 36.5131C67.8274 36.2565 67.7945 35.9702 67.7827 35.6542H67.0579V37.6315H66.3421V33.1578H67.0579V35.0278H67.7916C67.8095 34.7057 67.8514 34.4223 67.9169 34.1778C67.9824 33.9334 68.0779 33.7276 68.2032 33.5605C68.3285 33.3934 68.4866 33.2681 68.6774 33.1847C68.8742 33.0952 69.1098 33.0505 69.3842 33.0505C69.6885 33.0505 69.939 33.1071 70.1358 33.2205C70.3387 33.3278 70.4966 33.486 70.61 33.6947C70.7292 33.8976 70.8129 34.1449 70.8606 34.4373C70.9082 34.7236 70.9321 35.0428 70.9321 35.3947C70.9321 36.1463 70.8129 36.7249 70.5742 37.1305C70.3416 37.536 69.939 37.7389 69.3664 37.7389ZM68.4806 35.3947C68.4806 35.6273 68.4895 35.8481 68.5074 36.0568C68.5253 36.2655 68.564 36.4476 68.6237 36.6026C68.6835 36.7576 68.7729 36.8828 68.8921 36.9784C69.0114 37.0678 69.1756 37.1126 69.3842 37.1126C69.5514 37.1126 69.6885 37.0797 69.7958 37.0142C69.9032 36.9426 69.9837 36.8381 70.0374 36.701C70.0971 36.5578 70.1358 36.3789 70.1537 36.1642C70.1777 35.9494 70.1895 35.6928 70.1895 35.3947C70.1895 35.1621 70.1806 34.9413 70.1627 34.7326C70.1508 34.5239 70.1179 34.3418 70.0642 34.1868C70.0106 34.0318 69.9271 33.9094 69.8137 33.8199C69.7063 33.7244 69.5603 33.6768 69.3753 33.6768C69.1903 33.6768 69.0382 33.7126 68.919 33.7842C68.8056 33.8497 68.7161 33.9542 68.6506 34.0973C68.585 34.2344 68.5403 34.4134 68.5164 34.6342C68.4924 34.8489 68.4806 35.1023 68.4806 35.3947Z" fill="#1E1E1E"/>
<path d="M77.1918 38.7053H76.5834V37.6316H72.5034V33.1579H73.1655V37.0053H74.2392V33.1579H74.9013V37.0053H75.975V33.1579H76.6371V37.0053H77.1918V38.7053Z" fill="#1E1E1E"/>
<path d="M81.796 34.8221L81.8229 34.2316H81.796L79.2818 37.6316H78.6466V33.1579H79.3445V36.0479L79.3176 36.6116H79.3534L81.8497 33.1579H82.4939V37.6316H81.796V34.8221Z" fill="#1E1E1E"/>
<path d="M87.7873 34.8222L87.8141 34.2316H87.7873L85.2731 37.6316H84.6378V33.158H85.3357V36.048L85.3089 36.6116H85.3447L87.841 33.158H88.4852V37.6316H87.7873V34.8222ZM85.801 31.3506C85.8607 31.6251 85.962 31.8158 86.1052 31.9232C86.2544 32.0306 86.4244 32.0843 86.6152 32.0843C86.806 32.0843 86.976 32.0277 87.1252 31.9143C87.2744 31.8008 87.3757 31.6161 87.4294 31.3595L87.9662 31.5295C87.9126 31.8756 87.7576 32.1408 87.501 32.3258C87.2504 32.5108 86.9491 32.6032 86.5973 32.6032C86.4362 32.6032 86.2752 32.5824 86.1141 32.5406C85.9591 32.4987 85.8189 32.4361 85.6936 32.3527C85.5683 32.2693 85.461 32.1619 85.3715 32.0306C85.282 31.8993 85.2223 31.7443 85.1926 31.5653L85.801 31.3506Z" fill="#1E1E1E"/>
<path d="M96.8263 33.5068C97.0826 33.3576 97.3721 33.2502 97.6942 33.1847C98.0163 33.1192 98.3324 33.0863 98.6426 33.0863C98.9468 33.0863 99.1942 33.1339 99.3852 33.2294C99.5821 33.325 99.7342 33.4502 99.8416 33.6052C99.9547 33.7544 100.029 33.9273 100.065 34.1242C100.107 34.315 100.128 34.5089 100.128 34.7057C100.128 34.9323 100.122 35.1739 100.11 35.4305C100.098 35.6871 100.089 35.9434 100.083 36.2C100.083 36.4981 100.101 36.7815 100.137 37.05H100.736V37.6315H99.5463L99.4658 36.9605H99.421C99.3852 37.0142 99.3316 37.0828 99.26 37.1663C99.1884 37.2497 99.0929 37.3334 98.9737 37.4168C98.8602 37.4944 98.72 37.5628 98.5531 37.6226C98.386 37.6823 98.1892 37.7121 97.9626 37.7121C97.521 37.7121 97.1721 37.5986 96.9158 37.3721C96.6592 37.1455 96.531 36.8352 96.531 36.4415C96.531 36.1373 96.5966 35.8839 96.7279 35.681C96.865 35.4781 97.0589 35.3231 97.3095 35.2157C97.56 35.1084 97.861 35.0457 98.2131 35.0279C98.571 35.01 98.9705 35.0339 99.4121 35.0994C99.4418 34.825 99.4447 34.5984 99.421 34.4194C99.4031 34.2344 99.3552 34.0884 99.2779 33.981C99.2063 33.8736 99.1018 33.7992 98.9647 33.7573C98.8334 33.7097 98.6695 33.6857 98.4726 33.6857C98.2042 33.6857 97.9476 33.7244 97.7031 33.8021C97.4584 33.8736 97.2408 33.9481 97.05 34.0257L96.8263 33.5068ZM98.1416 37.1126C98.3084 37.1126 98.4637 37.0857 98.6068 37.0321C98.75 36.9784 98.8752 36.9097 98.9826 36.8263C99.09 36.7429 99.1794 36.6534 99.251 36.5578C99.3226 36.4565 99.3763 36.361 99.4121 36.2715V35.6452C99.1018 35.5915 98.8155 35.5647 98.5531 35.5647C98.2905 35.5647 98.0639 35.5944 97.8731 35.6542C97.6821 35.7078 97.5331 35.7944 97.4258 35.9136C97.3184 36.0329 97.2647 36.1881 97.2647 36.3789C97.2647 36.5757 97.3302 36.7486 97.4616 36.8979C97.5987 37.041 97.8252 37.1126 98.1416 37.1126Z" fill="#1E1E1E"/>
<path d="M105.663 33.7663H104.115C104.091 34.3092 104.061 34.8192 104.025 35.2963C103.989 35.7676 103.921 36.1792 103.819 36.5311C103.724 36.8829 103.584 37.1603 103.399 37.3632C103.22 37.5661 102.975 37.6674 102.665 37.6674C102.546 37.6674 102.459 37.6613 102.406 37.6495C102.352 37.6376 102.287 37.6166 102.209 37.5869L102.325 36.9247C102.439 36.9545 102.543 36.9695 102.638 36.9695C102.74 36.9695 102.829 36.9337 102.907 36.8621C102.984 36.7905 103.053 36.6771 103.113 36.5221C103.178 36.3611 103.232 36.1374 103.274 35.8511C103.322 35.5587 103.36 35.195 103.39 34.7595C103.42 34.3182 103.444 33.7842 103.462 33.1579H106.36V37.6316H105.663V33.7663Z" fill="#1E1E1E"/>
<path d="M109.533 37.0142C109.599 37.0261 109.677 37.035 109.766 37.0411C109.862 37.0471 109.957 37.0561 110.052 37.0679C110.148 37.074 110.24 37.0797 110.33 37.0858C110.419 37.0858 110.491 37.0858 110.544 37.0858C110.992 37.0858 111.32 37.0082 111.529 36.8532C111.737 36.6921 111.842 36.4834 111.842 36.2268C111.842 36.0003 111.74 35.8063 111.538 35.6453C111.335 35.4842 111.016 35.4037 110.58 35.4037C110.383 35.4037 110.189 35.4066 109.999 35.4126C109.814 35.4187 109.659 35.4366 109.533 35.4663V37.0142ZM109.533 34.8847C109.694 34.8608 109.864 34.8461 110.043 34.84C110.228 34.8282 110.44 34.8221 110.679 34.8221C111.025 34.8221 111.317 34.8579 111.555 34.9295C111.8 34.995 111.997 35.0876 112.146 35.2068C112.301 35.3261 112.411 35.4663 112.477 35.6274C112.549 35.7824 112.584 35.9524 112.584 36.1374C112.584 36.6803 112.399 37.0739 112.03 37.3184C111.666 37.5629 111.108 37.6853 110.357 37.6853C110.261 37.6853 110.148 37.6824 110.017 37.6763C109.891 37.6703 109.76 37.6613 109.623 37.6495C109.492 37.6434 109.357 37.6376 109.22 37.6316C109.083 37.6197 108.958 37.6076 108.844 37.5958V33.1579H109.533V34.8847Z" fill="#1E1E1E"/>
<path d="M117.502 35.8869H116.428L115.301 37.6316H114.406V37.0321H114.871L115.686 35.8153C115.572 35.7856 115.462 35.7377 115.355 35.6721C115.247 35.6006 115.149 35.514 115.059 35.4127C114.976 35.3053 114.907 35.1829 114.854 35.0458C114.806 34.9027 114.782 34.7445 114.782 34.5716C114.782 34.3032 114.836 34.0734 114.943 33.8827C115.05 33.6858 115.199 33.5248 115.39 33.3995C115.581 33.2742 115.808 33.1848 116.07 33.1311C116.333 33.0713 116.622 33.0416 116.938 33.0416C117.165 33.0416 117.38 33.0595 117.583 33.0953C117.785 33.125 117.991 33.1579 118.2 33.1937V37.6316H117.502V35.8869ZM117.502 35.35V33.7574C117.418 33.7277 117.32 33.7008 117.207 33.6769C117.093 33.6529 116.995 33.6411 116.911 33.6411C116.458 33.6411 116.112 33.7126 115.874 33.8558C115.635 33.9929 115.516 34.2137 115.516 34.5179C115.516 34.7624 115.587 34.9534 115.73 35.0906C115.874 35.2219 116.046 35.3082 116.249 35.35H117.502Z" fill="#1E1E1E"/>
<path d="M123.708 35.6453H121.301V37.6316H120.612V33.1579H121.301V35.019H123.708V33.1579H124.406V37.6316H123.708V35.6453Z" fill="#1E1E1E"/>
<path d="M129.744 33.8468C129.607 33.7992 129.458 33.7602 129.296 33.7305C129.141 33.6947 128.986 33.6768 128.831 33.6768C128.247 33.6768 127.811 33.8139 127.525 34.0884C127.239 34.3628 127.095 34.7981 127.095 35.3947C127.095 35.6571 127.137 35.8928 127.221 36.1015C127.304 36.3044 127.424 36.4773 127.579 36.6205C127.734 36.7636 127.919 36.8739 128.133 36.9515C128.354 37.0292 128.596 37.0678 128.858 37.0678C129.138 37.0678 129.41 37.0202 129.672 36.9247C129.941 36.8292 130.164 36.7039 130.343 36.5489L130.656 37.0678C130.573 37.1394 130.469 37.2139 130.343 37.2915C130.218 37.3692 130.072 37.4436 129.905 37.5152C129.744 37.5807 129.562 37.6344 129.359 37.6763C129.162 37.7181 128.948 37.7389 128.715 37.7389C128.327 37.7389 127.984 37.6852 127.686 37.5778C127.394 37.4644 127.149 37.3065 126.952 37.1036C126.755 36.8949 126.606 36.6473 126.505 36.361C126.404 36.0686 126.353 35.7465 126.353 35.3947C126.353 35.0189 126.404 34.6849 126.505 34.3926C126.612 34.1002 126.764 33.8557 126.961 33.6589C127.158 33.4621 127.397 33.3128 127.677 33.2115C127.957 33.1042 128.27 33.0505 128.616 33.0505C129.058 33.0505 129.416 33.0892 129.69 33.1668C129.97 33.2444 130.206 33.3307 130.397 33.4263L130.388 33.4531V34.6968H129.744V33.8468Z" fill="#1E1E1E"/>
<path fill-rule="evenodd" clip-rule="evenodd" d="M80.3035 6.65666V25.9836H84.7019V17.9335H99.8629V25.9836H104.295V6.65666C104.295 5.39261 103.839 4.30594 102.928 3.3967C102.018 2.48746 100.918 2.03284 99.6298 2.03284H84.935C83.669 2.03284 82.5806 2.48746 81.6698 3.3967C80.759 4.30594 80.3035 5.39261 80.3035 6.65666ZM86.1348 6.52361C85.3985 6.52361 84.8019 7.11935 84.8019 7.85421V12.1786C84.8019 12.9135 85.3985 13.5092 86.1348 13.5092H98.4635C99.1995 13.5092 99.7964 12.9135 99.7964 12.1786V7.85421C99.7964 7.11935 99.1995 6.52361 98.4635 6.52361H86.1348Z" fill="#1E1E1E"/>
<path fill-rule="evenodd" clip-rule="evenodd" d="M0 25.9705V2.01978H19.3262C20.6145 2.01978 21.7142 2.4744 22.6249 3.38364C23.5357 4.29288 23.9911 5.37955 23.9911 6.6436V21.3467C23.9911 22.6108 23.5357 23.6974 22.6249 24.6067C21.7142 25.5159 20.6145 25.9705 19.3262 25.9705H0ZM4.49831 7.84115C4.49831 7.10628 5.09505 6.51055 5.83116 6.51055H18.1599C18.896 6.51055 19.4928 7.10628 19.4928 7.84115V20.1492C19.4928 20.884 18.896 21.4798 18.1599 21.4798H5.83116C5.09505 21.4798 4.49831 20.884 4.49831 20.1492V7.84115Z" fill="#1E1E1E"/>
<path d="M107.588 2.03284V26.0168H131.579V21.5926H111.986V2.03284H107.588Z" fill="#1E1E1E"/>
<path d="M27.3231 21.5925C27.3231 21.5925 27.3231 23.3828 28.3229 24.6529C29.3223 25.923 31.7547 26.0168 31.7547 26.0168H49.415V21.5925H31.7547V15.7379H49.415V11.3137H31.7547V6.49028H49.415V2.06604H31.7547C31.7547 2.06604 29.4058 2.06604 28.3229 3.4299C27.1992 4.84497 27.3231 6.68986 27.3231 6.68986V21.5925Z" fill="#1E1E1E"/>
<path d="M52.834 21.2266V26.0168H76.825V21.5925H59.265L76.825 6.85618V2.06604H52.834V6.49028H70.3942L52.834 21.2266Z" fill="#1E1E1E"/>
<path d="M147.368 2.13813C147.368 0.975426 148.311 0.0328674 149.474 0.0328674H183.158C184.32 0.0328674 185.263 0.975426 185.263 2.13813V35.8224C185.263 36.985 184.32 37.9276 183.158 37.9276H149.474C148.311 37.9276 147.368 36.985 147.368 35.8224V2.13813Z" fill="#1E1E1E"/>
<path d="M147.368 18.9802C156.316 17.1101 165.039 8.9474 166.349 0C167.724 8.94737 176.381 17.6052 185.329 18.9802C176.381 20.2894 167.657 29.0132 166.349 37.9605C164.973 29.0132 156.316 20.6891 147.368 18.9802Z" fill="#FFDD2D"/>
</g>
<defs>
<clipPath id="clip0">
<rect width="185.526" height="40" fill="white"/>
</clipPath>
</defs>
</svg>
