<svg width="18" height="12" viewBox="0 0 18 12" fill="none" xmlns="http://www.w3.org/2000/svg">
<path d="M10.5707 6.74837L9.02703 7.7651C8.93539 7.8251 8.83176 7.85456 8.72703 7.85456C8.6223 7.85456 8.51866 7.8251 8.42703 7.7651L6.88339 6.74728L0.034668 11.0793C0.118668 11.5975 0.548486 12 1.09067 12H16.3634C16.9056 12 17.3354 11.5975 17.4194 11.0793L10.5707 6.74837Z" fill="#B7B7B7"/>
<path d="M11.571 6.08945L17.4554 9.80944V2.21236L11.571 6.08945Z" fill="#B7B7B7"/>
<path d="M0 2.21236V9.80944L5.88436 6.08945L0 2.21236Z" fill="#B7B7B7"/>
<path d="M16.3641 0H1.09138C0.547021 0 0.115021 0.405818 0.0332031 0.928363L8.72774 6.65672L17.4223 0.928363C17.3405 0.405818 16.9085 0 16.3641 0Z" fill="#B7B7B7"/>
</svg>
