<?xml version="1.0"?>
<svg xmlns="http://www.w3.org/2000/svg" xmlns:xlink="http://www.w3.org/1999/xlink" xmlns:svgjs="http://svgjs.com/svgjs" version="1.1" width="512" height="512" x="0" y="0" viewBox="0 0 512.013 512.013" style="enable-background:new 0 0 512 512" xml:space="preserve" class=""><g><g xmlns="http://www.w3.org/2000/svg"><path d="m465.008 300.013h-341.362l99.743-57.587c.001-.001.002-.001.004-.002.001 0 .001-.001.002-.001l207.843-119.999c7.175-4.142 9.633-13.316 5.49-20.49l-45-77.942c-4.14-7.17-13.316-9.631-20.49-5.49l-71.903 41.513c.016-10.428-2.696-20.722-8.049-29.994-16.578-28.717-53.238-38.545-81.961-21.962-19.239 11.107-30.725 31.809-29.974 54.026l1.581 46.795-39.736-24.766c-.004-.003-.009-.005-.013-.007-18.863-11.75-42.528-12.152-61.762-1.047-28.651 16.542-38.503 53.31-21.961 81.961 5.353 9.272 12.913 16.767 21.951 21.967l-71.903 41.513c-7.175 4.142-9.633 13.316-5.49 20.49l45 77.942c4.165 7.214 13.36 9.608 20.49 5.49l22.5-12.99v177.579c0 8.284 6.716 15 15 15h360c8.284 0 15-6.716 15-15v-182c0-8.283-6.716-14.999-15-14.999zm-260.602-150.55c.033-.019 12.958-7.481 12.958-7.481l30 51.962-25.98 15-30-51.962zm168.842-97.481 30 51.962-129.904 75-30-51.962 25.967-14.992c.005-.003.01-.005.014-.008.006-.004.012-.008.019-.011zm-148.923-17.942c14.357-8.291 32.689-3.381 40.98 10.98 8.288 14.355 3.384 32.683-10.976 40.978l-38.973 22.502c-.001 0-.002.001-.002.001s-.001.001-.002.001l-4.331 2.5-1.687-49.931c-.375-11.118 5.369-21.476 14.991-27.031zm-99.904 126.961c-14.359 8.288-32.687 3.382-40.98-10.98-8.271-14.326-3.345-32.71 10.98-40.981 9.621-5.555 21.461-5.35 30.901.531.002.001.003.002.005.003l42.398 26.426-43.302 25s-.001.001-.002.001zm-58.923 137.943-30-51.962 129.904-75 30 51.962zm234.51 31.069v152h-30v-152zm-180 0h120v152h-120zm330 152h-120v-152h120z" fill="#316095" data-original="#000000" style="" class=""/><path d="m497.008 150.013h-15v-15c0-8.284-6.716-15-15-15s-15 6.716-15 15v15h-15c-8.284 0-15 6.716-15 15s6.716 15 15 15h15v15c0 8.284 6.716 15 15 15s15-6.716 15-15v-15h15c8.284 0 15-6.716 15-15s-6.716-15-15-15z" fill="#316095" data-original="#000000" style="" class=""/><path d="m375.008 270.013c8.284 0 15-6.716 15-15v-15h15c8.284 0 15-6.716 15-15s-6.716-15-15-15h-15v-15c0-8.284-6.716-15-15-15s-15 6.716-15 15v15h-15c-8.284 0-15 6.716-15 15s6.716 15 15 15h15v15c0 8.284 6.716 15 15 15z" fill="#316095" data-original="#000000" style="" class=""/></g></g></svg>
