<svg width="705" height="152" viewBox="0 0 705 152" fill="none" xmlns="http://www.w3.org/2000/svg">
<path d="M19.244 147.08H16.932V143H3.26403V147.08H0.952026V140.688H2.85603C3.06003 140.439 3.33203 139.997 3.67203 139.362C4.01203 138.705 4.34069 137.798 4.65803 136.642C4.97536 135.463 5.25869 134.013 5.50803 132.29C5.75736 130.545 5.90469 128.448 5.95003 126H16.626V140.688H19.244V147.08ZM13.974 140.722V128.278H8.36403C8.31869 129.253 8.22803 130.307 8.09203 131.44C7.97869 132.573 7.80869 133.707 7.58203 134.84C7.35536 135.951 7.07203 137.016 6.73203 138.036C6.41469 139.056 6.04069 139.951 5.61003 140.722H13.974Z" fill="#1E1E1E"/>
<path d="M40.7527 140.858C40.3447 141.221 39.8574 141.561 39.2907 141.878C38.7467 142.195 38.1461 142.467 37.4887 142.694C36.8314 142.921 36.1401 143.091 35.4147 143.204C34.7121 143.34 33.9981 143.408 33.2727 143.408C31.9127 143.408 30.7114 143.204 29.6687 142.796C28.6261 142.365 27.7534 141.765 27.0507 140.994C26.3481 140.201 25.8154 139.26 25.4527 138.172C25.0901 137.084 24.9087 135.86 24.9087 134.5C24.9087 133.072 25.1014 131.803 25.4867 130.692C25.8947 129.581 26.4727 128.652 27.2207 127.904C27.9687 127.156 28.8754 126.589 29.9407 126.204C31.0061 125.796 32.1961 125.592 33.5107 125.592C34.4627 125.592 35.4034 125.717 36.3327 125.966C37.2621 126.215 38.0781 126.691 38.7807 127.394C39.5061 128.074 40.0614 129.026 40.4467 130.25C40.8321 131.451 40.9681 133.015 40.8547 134.942H27.6967C27.6967 136.982 28.2407 138.512 29.3287 139.532C30.4394 140.529 31.9127 141.028 33.7487 141.028C34.3607 141.028 34.9614 140.96 35.5507 140.824C36.1627 140.665 36.7407 140.484 37.2847 140.28C37.8287 140.076 38.3047 139.849 38.7127 139.6C39.1434 139.351 39.4721 139.124 39.6987 138.92L40.7527 140.858ZM33.5787 127.836C32.8307 127.836 32.1167 127.915 31.4367 128.074C30.7794 128.233 30.1901 128.505 29.6687 128.89C29.1701 129.253 28.7507 129.74 28.4107 130.352C28.0934 130.941 27.8894 131.678 27.7987 132.562H38.3727C38.2594 131.066 37.7721 129.91 36.9107 129.094C36.0721 128.255 34.9614 127.836 33.5787 127.836Z" fill="#1E1E1E"/>
<path d="M49.1715 127.598L49.1375 127.496C49.5228 127.269 49.9308 127.054 50.3615 126.85C50.8148 126.623 51.3135 126.431 51.8575 126.272C52.4241 126.091 53.0588 125.943 53.7615 125.83C54.4641 125.717 55.2688 125.66 56.1755 125.66C57.1048 125.66 57.9661 125.762 58.7595 125.966C59.5528 126.147 60.2441 126.419 60.8335 126.782C61.4228 127.145 61.8761 127.598 62.1935 128.142C62.5335 128.663 62.7035 129.264 62.7035 129.944C62.7035 130.307 62.6241 130.692 62.4655 131.1C62.3295 131.485 62.1141 131.859 61.8195 132.222C61.5248 132.585 61.1735 132.913 60.7655 133.208C60.3575 133.503 59.8928 133.729 59.3715 133.888V134.024C60.8675 134.273 61.9101 134.749 62.4995 135.452C63.1115 136.155 63.4175 137.084 63.4175 138.24C63.4175 138.965 63.2475 139.634 62.9075 140.246C62.5675 140.858 62.0575 141.391 61.3775 141.844C60.7201 142.297 59.8928 142.66 58.8955 142.932C57.9208 143.181 56.7761 143.306 55.4615 143.306C54.4868 143.306 53.6028 143.215 52.8095 143.034C52.0161 142.853 51.3135 142.626 50.7015 142.354C50.1121 142.082 49.6021 141.787 49.1715 141.47C48.7635 141.153 48.4461 140.858 48.2195 140.586L49.5795 138.444C49.8288 138.716 50.1348 139.011 50.4975 139.328C50.8601 139.623 51.3021 139.895 51.8235 140.144C52.3675 140.393 52.9795 140.609 53.6595 140.79C54.3621 140.949 55.1668 141.028 56.0735 141.028C56.7081 141.028 57.2975 140.971 57.8415 140.858C58.4081 140.722 58.8955 140.541 59.3035 140.314C59.7341 140.065 60.0741 139.759 60.3235 139.396C60.5728 139.011 60.6975 138.569 60.6975 138.07C60.6975 137.209 60.3008 136.551 59.5075 136.098C58.7368 135.645 57.4561 135.418 55.6655 135.418H53.7275V133.208H56.1415C56.5948 133.208 57.0481 133.14 57.5015 133.004C57.9548 132.845 58.3628 132.653 58.7255 132.426C59.0881 132.177 59.3828 131.893 59.6095 131.576C59.8361 131.236 59.9495 130.885 59.9495 130.522C59.9495 130.069 59.8361 129.683 59.6095 129.366C59.3828 129.026 59.0655 128.754 58.6575 128.55C58.2721 128.346 57.8075 128.199 57.2635 128.108C56.7421 127.995 56.1868 127.938 55.5975 127.938C54.6908 127.938 53.8975 128.029 53.2175 128.21C52.5375 128.369 51.9595 128.573 51.4835 128.822V131.644H49.1715V127.598Z" fill="#1E1E1E"/>
<path d="M83.1582 132.324L83.2602 130.08H83.1582L73.6042 143H71.1902V126H73.8422V136.982L73.7402 139.124H73.8762L83.3622 126H85.8102V143H83.1582V132.324Z" fill="#1E1E1E"/>
<path d="M105.823 135.452H96.6769V143H94.0589V126H96.6769V133.072H105.823V126H108.475V143H105.823V135.452Z" fill="#1E1E1E"/>
<path d="M120.09 119.2H125.326V125.898C125.734 125.83 126.096 125.785 126.414 125.762C126.731 125.739 127.037 125.728 127.332 125.728C129.394 125.728 130.924 126.385 131.922 127.7C132.919 128.992 133.418 131.145 133.418 134.16C133.418 137.016 132.885 139.271 131.82 140.926C130.777 142.581 129.236 143.408 127.196 143.408C126.992 143.408 126.686 143.385 126.278 143.34C125.892 143.317 125.575 143.261 125.326 143.17V149.8H122.742V143.136C122.356 143.272 121.948 143.351 121.518 143.374C121.11 143.397 120.736 143.408 120.396 143.408C118.492 143.408 117.052 142.683 116.078 141.232C115.126 139.781 114.65 137.537 114.65 134.5C114.65 131.599 115.194 129.411 116.282 127.938C117.37 126.465 118.979 125.728 121.11 125.728C121.744 125.728 122.288 125.773 122.742 125.864V121.478H120.09V119.2ZM126.822 127.972C126.55 127.972 126.3 127.983 126.074 128.006C125.87 128.006 125.609 128.051 125.292 128.142V141.062C125.518 141.107 125.768 141.141 126.04 141.164C126.334 141.164 126.652 141.164 126.992 141.164C128.284 141.164 129.224 140.563 129.814 139.362C130.403 138.161 130.698 136.427 130.698 134.16C130.698 133.208 130.641 132.347 130.528 131.576C130.414 130.805 130.21 130.159 129.916 129.638C129.621 129.094 129.224 128.686 128.726 128.414C128.227 128.119 127.592 127.972 126.822 127.972ZM121.076 141.164C121.348 141.164 121.62 141.153 121.892 141.13C122.164 141.107 122.458 141.062 122.776 140.994V128.108C122.504 128.063 122.243 128.029 121.994 128.006C121.767 127.983 121.484 127.972 121.144 127.972C119.92 127.972 118.979 128.505 118.322 129.57C117.687 130.613 117.37 132.256 117.37 134.5C117.37 135.452 117.438 136.336 117.574 137.152C117.71 137.968 117.925 138.682 118.22 139.294C118.514 139.883 118.888 140.348 119.342 140.688C119.818 141.005 120.396 141.164 121.076 141.164Z" fill="#1E1E1E"/>
<path d="M151.458 132.324L151.56 130.08H151.458L141.904 143H139.49V126H142.142V136.982L142.04 139.124H142.176L151.662 126H154.11V143H151.458V132.324Z" fill="#1E1E1E"/>
<path d="M179.257 147.08H176.945V143H162.427V126H165.045V140.688H173.817V126H176.469V140.688H179.257V147.08Z" fill="#1E1E1E"/>
<path d="M196.992 132.324L197.094 130.08H196.992L187.438 143H185.024V126H187.676V136.982L187.574 139.124H187.71L197.196 126H199.644V143H196.992V132.324Z" fill="#1E1E1E"/>
<path d="M208.165 131.95C208.165 131.746 208.153 131.485 208.13 131.168C208.13 130.828 208.119 130.488 208.096 130.148C208.074 129.785 208.04 129.434 207.994 129.094C207.972 128.754 207.938 128.459 207.893 128.21H205.615V126H210.137L210.477 128.38H210.646C211.258 127.587 212.029 126.929 212.958 126.408C213.91 125.864 215.066 125.592 216.426 125.592C218.852 125.592 220.676 126.261 221.9 127.598C223.124 128.935 223.736 131.123 223.736 134.16C223.736 135.588 223.521 136.88 223.09 138.036C222.682 139.169 222.093 140.133 221.322 140.926C220.552 141.719 219.623 142.331 218.535 142.762C217.446 143.193 216.245 143.408 214.93 143.408C214.454 143.408 214.024 143.385 213.639 143.34C213.276 143.317 212.936 143.272 212.618 143.204C212.324 143.159 212.029 143.091 211.734 143C211.44 142.909 211.123 142.796 210.783 142.66V149.8H208.165V131.95ZM215.984 128.074C215.304 128.074 214.658 128.199 214.046 128.448C213.457 128.697 212.925 129.026 212.449 129.434C211.995 129.842 211.621 130.295 211.326 130.794C211.032 131.293 210.851 131.791 210.783 132.29V140.042C211.281 140.382 211.837 140.654 212.449 140.858C213.083 141.039 213.91 141.13 214.93 141.13C216.744 141.13 218.195 140.541 219.283 139.362C220.371 138.161 220.915 136.415 220.915 134.126C220.915 132.199 220.529 130.715 219.758 129.672C219.01 128.607 217.752 128.074 215.984 128.074Z" fill="#1E1E1E"/>
<path d="M238.241 140.382H239.533L243.749 126H246.503L241.777 141.266C241.528 142.059 241.267 142.955 240.995 143.952C240.746 144.972 240.383 145.924 239.907 146.808C239.431 147.692 238.785 148.44 237.969 149.052C237.153 149.664 236.088 149.97 234.773 149.97C234.479 149.97 234.161 149.936 233.821 149.868C233.504 149.8 233.187 149.709 232.869 149.596C232.552 149.505 232.257 149.392 231.985 149.256C231.713 149.12 231.509 148.984 231.373 148.848L232.325 146.4C232.461 146.513 232.643 146.627 232.869 146.74C233.119 146.853 233.379 146.944 233.651 147.012C233.946 147.103 234.229 147.171 234.501 147.216C234.773 147.284 235 147.318 235.181 147.318C236.881 147.318 238.037 145.879 238.649 143H236.371L229.231 126H232.291L238.241 140.382Z" fill="#1E1E1E"/>
<path d="M263.592 143.408C262.459 143.408 261.507 143.227 260.736 142.864C259.988 142.479 259.387 141.946 258.934 141.266C258.481 140.563 258.152 139.725 257.948 138.75C257.744 137.775 257.619 136.687 257.574 135.486H254.82V143H252.1V126H254.82V133.106H257.608C257.676 131.882 257.835 130.805 258.084 129.876C258.333 128.947 258.696 128.165 259.172 127.53C259.648 126.895 260.249 126.419 260.974 126.102C261.722 125.762 262.617 125.592 263.66 125.592C264.816 125.592 265.768 125.807 266.516 126.238C267.287 126.646 267.887 127.247 268.318 128.04C268.771 128.811 269.089 129.751 269.27 130.862C269.451 131.95 269.542 133.163 269.542 134.5C269.542 137.356 269.089 139.555 268.182 141.096C267.298 142.637 265.768 143.408 263.592 143.408ZM260.226 134.5C260.226 135.384 260.26 136.223 260.328 137.016C260.396 137.809 260.543 138.501 260.77 139.09C260.997 139.679 261.337 140.155 261.79 140.518C262.243 140.858 262.867 141.028 263.66 141.028C264.295 141.028 264.816 140.903 265.224 140.654C265.632 140.382 265.938 139.985 266.142 139.464C266.369 138.92 266.516 138.24 266.584 137.424C266.675 136.608 266.72 135.633 266.72 134.5C266.72 133.616 266.686 132.777 266.618 131.984C266.573 131.191 266.448 130.499 266.244 129.91C266.04 129.321 265.723 128.856 265.292 128.516C264.884 128.153 264.329 127.972 263.626 127.972C262.923 127.972 262.345 128.108 261.892 128.38C261.461 128.629 261.121 129.026 260.872 129.57C260.623 130.091 260.453 130.771 260.362 131.61C260.271 132.426 260.226 133.389 260.226 134.5Z" fill="#1E1E1E"/>
<path d="M293.329 147.08H291.017V143H275.513V126H278.029V140.62H282.109V126H284.625V140.62H288.705V126H291.221V140.62H293.329V147.08Z" fill="#1E1E1E"/>
<path d="M310.825 132.324L310.927 130.08H310.825L301.271 143H298.857V126H301.509V136.982L301.407 139.124H301.543L311.029 126H313.477V143H310.825V132.324Z" fill="#1E1E1E"/>
<path d="M333.592 132.324L333.694 130.08H333.592L324.038 143H321.624V126H324.276V136.982L324.174 139.124H324.31L333.796 126H336.244V143H333.592V132.324ZM326.044 119.132C326.271 120.175 326.656 120.9 327.2 121.308C327.767 121.716 328.413 121.92 329.138 121.92C329.863 121.92 330.509 121.705 331.076 121.274C331.643 120.843 332.028 120.141 332.232 119.166L334.272 119.812C334.068 121.127 333.479 122.135 332.504 122.838C331.552 123.541 330.407 123.892 329.07 123.892C328.458 123.892 327.846 123.813 327.234 123.654C326.645 123.495 326.112 123.257 325.636 122.94C325.16 122.623 324.752 122.215 324.412 121.716C324.072 121.217 323.845 120.628 323.732 119.948L326.044 119.132Z" fill="#1E1E1E"/>
<path d="M367.94 127.326C368.914 126.759 370.014 126.351 371.238 126.102C372.462 125.853 373.663 125.728 374.842 125.728C375.998 125.728 376.938 125.909 377.664 126.272C378.412 126.635 378.99 127.111 379.398 127.7C379.828 128.267 380.112 128.924 380.248 129.672C380.406 130.397 380.486 131.134 380.486 131.882C380.486 132.743 380.463 133.661 380.418 134.636C380.372 135.611 380.338 136.585 380.316 137.56C380.316 138.693 380.384 139.77 380.52 140.79H382.798V143H378.276L377.97 140.45H377.8C377.664 140.654 377.46 140.915 377.188 141.232C376.916 141.549 376.553 141.867 376.1 142.184C375.669 142.479 375.136 142.739 374.502 142.966C373.867 143.193 373.119 143.306 372.258 143.306C370.58 143.306 369.254 142.875 368.28 142.014C367.305 141.153 366.818 139.974 366.818 138.478C366.818 137.322 367.067 136.359 367.566 135.588C368.087 134.817 368.824 134.228 369.776 133.82C370.728 133.412 371.872 133.174 373.21 133.106C374.57 133.038 376.088 133.129 377.766 133.378C377.879 132.335 377.89 131.474 377.8 130.794C377.732 130.091 377.55 129.536 377.256 129.128C376.984 128.72 376.587 128.437 376.066 128.278C375.567 128.097 374.944 128.006 374.196 128.006C373.176 128.006 372.201 128.153 371.272 128.448C370.342 128.72 369.515 129.003 368.79 129.298L367.94 127.326ZM372.938 141.028C373.572 141.028 374.162 140.926 374.706 140.722C375.25 140.518 375.726 140.257 376.134 139.94C376.542 139.623 376.882 139.283 377.154 138.92C377.426 138.535 377.63 138.172 377.766 137.832V135.452C376.587 135.248 375.499 135.146 374.502 135.146C373.504 135.146 372.643 135.259 371.918 135.486C371.192 135.69 370.626 136.019 370.218 136.472C369.81 136.925 369.606 137.515 369.606 138.24C369.606 138.988 369.855 139.645 370.354 140.212C370.875 140.756 371.736 141.028 372.938 141.028Z" fill="#1E1E1E"/>
<path d="M401.518 128.312H395.636C395.546 130.375 395.432 132.313 395.296 134.126C395.16 135.917 394.9 137.481 394.514 138.818C394.152 140.155 393.619 141.209 392.916 141.98C392.236 142.751 391.307 143.136 390.128 143.136C389.675 143.136 389.346 143.113 389.142 143.068C388.938 143.023 388.689 142.943 388.394 142.83L388.836 140.314C389.267 140.427 389.664 140.484 390.026 140.484C390.412 140.484 390.752 140.348 391.046 140.076C391.341 139.804 391.602 139.373 391.828 138.784C392.078 138.172 392.282 137.322 392.44 136.234C392.622 135.123 392.769 133.741 392.882 132.086C392.996 130.409 393.086 128.38 393.154 126H404.17V143H401.518V128.312Z" fill="#1E1E1E"/>
<path d="M416.227 140.654C416.476 140.699 416.771 140.733 417.111 140.756C417.474 140.779 417.836 140.813 418.199 140.858C418.562 140.881 418.913 140.903 419.253 140.926C419.593 140.926 419.865 140.926 420.069 140.926C421.769 140.926 423.016 140.631 423.809 140.042C424.602 139.43 424.999 138.637 424.999 137.662C424.999 136.801 424.614 136.064 423.843 135.452C423.072 134.84 421.86 134.534 420.205 134.534C419.457 134.534 418.72 134.545 417.995 134.568C417.292 134.591 416.703 134.659 416.227 134.772V140.654ZM416.227 132.562C416.839 132.471 417.485 132.415 418.165 132.392C418.868 132.347 419.672 132.324 420.579 132.324C421.894 132.324 423.004 132.46 423.911 132.732C424.84 132.981 425.588 133.333 426.155 133.786C426.744 134.239 427.164 134.772 427.413 135.384C427.685 135.973 427.821 136.619 427.821 137.322C427.821 139.385 427.118 140.881 425.713 141.81C424.33 142.739 422.211 143.204 419.355 143.204C418.992 143.204 418.562 143.193 418.063 143.17C417.587 143.147 417.088 143.113 416.567 143.068C416.068 143.045 415.558 143.023 415.037 143C414.516 142.955 414.04 142.909 413.609 142.864V126H416.227V132.562Z" fill="#1E1E1E"/>
<path d="M446.508 136.37H442.428L438.144 143H434.744V140.722H436.512L439.606 136.098C439.175 135.985 438.756 135.803 438.348 135.554C437.94 135.282 437.566 134.953 437.226 134.568C436.908 134.16 436.648 133.695 436.444 133.174C436.262 132.63 436.172 132.029 436.172 131.372C436.172 130.352 436.376 129.479 436.784 128.754C437.192 128.006 437.758 127.394 438.484 126.918C439.209 126.442 440.07 126.102 441.068 125.898C442.065 125.671 443.164 125.558 444.366 125.558C445.227 125.558 446.043 125.626 446.814 125.762C447.584 125.875 448.366 126 449.16 126.136V143H446.508V136.37ZM446.508 134.33V128.278C446.19 128.165 445.816 128.063 445.386 127.972C444.955 127.881 444.581 127.836 444.264 127.836C442.541 127.836 441.226 128.108 440.32 128.652C439.413 129.173 438.96 130.012 438.96 131.168C438.96 132.097 439.232 132.823 439.776 133.344C440.32 133.843 440.977 134.171 441.748 134.33H446.508Z" fill="#1E1E1E"/>
<path d="M470.09 135.452H460.944V143H458.326V126H460.944V133.072H470.09V126H472.742V143H470.09V135.452Z" fill="#1E1E1E"/>
<path d="M493.027 128.618C492.506 128.437 491.939 128.289 491.327 128.176C490.738 128.04 490.148 127.972 489.559 127.972C487.338 127.972 485.683 128.493 484.595 129.536C483.507 130.579 482.963 132.233 482.963 134.5C482.963 135.497 483.122 136.393 483.439 137.186C483.756 137.957 484.21 138.614 484.799 139.158C485.388 139.702 486.091 140.121 486.907 140.416C487.746 140.711 488.664 140.858 489.661 140.858C490.726 140.858 491.758 140.677 492.755 140.314C493.775 139.951 494.625 139.475 495.305 138.886L496.495 140.858C496.178 141.13 495.781 141.413 495.305 141.708C494.829 142.003 494.274 142.286 493.639 142.558C493.027 142.807 492.336 143.011 491.565 143.17C490.817 143.329 490.001 143.408 489.117 143.408C487.644 143.408 486.34 143.204 485.207 142.796C484.096 142.365 483.167 141.765 482.419 140.994C481.671 140.201 481.104 139.26 480.719 138.172C480.334 137.061 480.141 135.837 480.141 134.5C480.141 133.072 480.334 131.803 480.719 130.692C481.127 129.581 481.705 128.652 482.453 127.904C483.201 127.156 484.108 126.589 485.173 126.204C486.238 125.796 487.428 125.592 488.743 125.592C490.42 125.592 491.78 125.739 492.823 126.034C493.888 126.329 494.784 126.657 495.509 127.02L495.475 127.122V131.848H493.027V128.618Z" fill="#1E1E1E"/>
<path fill-rule="evenodd" clip-rule="evenodd" d="M305.153 17.6954V91.1377H321.867V60.5473H379.479V91.1377H396.319V17.6954C396.319 12.892 394.589 8.76267 391.128 5.30755C387.667 1.85244 383.489 0.124878 378.593 0.124878H322.753C317.942 0.124878 313.806 1.85244 310.345 5.30755C306.884 8.76267 305.153 12.892 305.153 17.6954ZM327.312 17.1898C324.514 17.1898 322.247 19.4536 322.247 22.2461V38.6789C322.247 41.4714 324.514 43.7352 327.312 43.7352H374.161C376.958 43.7352 379.226 41.4714 379.226 38.6789V22.2461C379.226 19.4536 376.958 17.1898 374.161 17.1898H327.312Z" fill="#1E1E1E"/>
<path fill-rule="evenodd" clip-rule="evenodd" d="M0 91.1377V0.124878H73.4394C78.3353 0.124878 82.5138 1.85244 85.9747 5.30755C89.4357 8.76267 91.1661 12.892 91.1661 17.6954V73.5672C91.1661 78.3706 89.4357 82.4999 85.9747 85.955C82.5138 89.4102 78.3353 91.1377 73.4394 91.1377H0ZM17.0936 22.2461C17.0936 19.4536 19.3612 17.1898 22.1584 17.1898H69.0077C71.8049 17.1898 74.0725 19.4536 74.0725 22.2461V69.0165C74.0725 71.809 71.8049 74.0728 69.0077 74.0728H22.1584C19.3612 74.0728 17.0936 71.809 17.0936 69.0165V22.2461Z" fill="#1E1E1E"/>
<path d="M408.834 0.124878V91.2641H500V74.452H425.548V0.124878H408.834Z" fill="#1E1E1E"/>
<path d="M103.828 74.452C103.828 74.452 103.828 81.255 107.627 86.0814C111.425 90.9079 120.668 91.2641 120.668 91.2641H187.777V74.452H120.668V52.2044H187.777V35.3923H120.668V17.0634H187.777V0.251283H120.668C120.668 0.251283 111.742 0.251283 107.627 5.43397C103.357 10.8112 103.828 17.8218 103.828 17.8218V74.452Z" fill="#1E1E1E"/>
<path d="M200.769 73.0615V91.2641H291.935V74.452H225.207L291.935 18.4538V0.251283H200.769V17.0634H267.498L200.769 73.0615Z" fill="#1E1E1E"/>
<path d="M560 8.12488C560 3.7066 563.582 0.124878 568 0.124878H696C700.418 0.124878 704 3.7066 704 8.12488V136.125C704 140.543 700.418 144.125 696 144.125H568C563.582 144.125 560 140.543 560 136.125V8.12488Z" fill="#1E1E1E"/>
<path d="M560 72.1249C594 65.0185 627.15 34.0001 632.125 -1.2517e-05C637.35 34 670.25 66.8997 704.25 72.1249C670.25 77.0997 637.097 110.25 632.125 144.25C626.897 110.25 594 78.6186 560 72.1249Z" fill="#FFDD2D"/>
</svg>
